<?xml version="1.0" encoding="UTF-8" standalone="no"?>
<svg
   xmlns:dc="http://purl.org/dc/elements/1.1/"
   xmlns:cc="http://creativecommons.org/ns#"
   xmlns:rdf="http://www.w3.org/1999/02/22-rdf-syntax-ns#"
   xmlns:svg="http://www.w3.org/2000/svg"
   xmlns="http://www.w3.org/2000/svg"
   viewBox="0 0 734.05334 328.35999"
   height="328.35999"
   width="734.05334"
   xml:space="preserve"
   id="svg2"
   version="1.1"><metadata
     id="metadata8"><rdf:RDF><cc:Work
         rdf:about=""><dc:format>image/svg+xml</dc:format><dc:type
           rdf:resource="http://purl.org/dc/dcmitype/StillImage" /></cc:Work></rdf:RDF></metadata><defs
     id="defs6" /><g
     transform="matrix(1.3333333,0,0,-1.3333333,0,328.36)"
     id="g10"><g
       transform="scale(0.1)"
       id="g12"><path
         id="path14"
         style="fill:#000000;fill-opacity:1;fill-rule:nonzero;stroke:none"
         d="m 2169.82,931.082 c -4.4,-23.512 -12.8,-45.5 -25.3,-66.012 -13.9,-22.691 -29,-38.89 -45.09,-48.398 -7.31,-6.602 -15,-9.902 -23.11,-9.902 -6.6,-1.489 -13.6,-0.688 -20.9,2.21 -5.1,2.2 -8.8,5.5 -10.99,9.899 -1.51,4.402 -2.21,8.801 -2.21,13.191 0,2.899 0.7,6.61 2.21,11.012 3.69,21.297 13.19,42.898 28.59,64.887 11.7,18.301 28.6,35.613 50.6,51.703 11.7,8.808 21.6,14.707 29.7,17.609 4.4,1.489 7,2.199 7.7,2.199 0,-13.21 3.3,-25.308 9.9,-36.3 z m -409.2,0 c -4.4,-23.512 -12.8,-45.5 -25.3,-66.012 -13.9,-22.691 -29,-38.89 -45.1,-48.398 -7.3,-6.602 -15,-9.902 -23.1,-9.902 -6.6,-1.489 -13.6,-0.688 -20.9,2.21 -5.1,2.2 -8.8,5.5 -11,9.899 -1.5,4.402 -2.2,8.801 -2.2,13.191 0,2.899 0.7,6.61 2.2,11.012 3.7,21.297 13.2,42.898 28.6,64.887 11.7,18.301 28.6,35.613 50.61,51.703 11.69,8.808 21.59,14.707 29.69,17.609 4.4,1.489 7,2.199 7.7,2.199 0,-13.21 3.3,-25.308 9.9,-36.3 z m 822.8,-9.902 c -1.49,3.699 -4.1,6.789 -7.7,9.289 -3.7,2.613 -7.4,3.91 -11,3.91 -2.2,0 -4.8,-0.699 -7.7,-2.207 -11.8,-3.692 -23.5,-9.203 -35.2,-16.492 2.2,8.8 3.3,18.699 3.3,29.699 0,13.891 -2.6,27.5 -7.7,40.703 -0.8,1.488 -1.5,3.297 -2.2,5.5 -0.79,2.188 -2.2,4.797 -4.4,7.688 l -4.4,6.6 -6.6,7.71 c -9.6,8.8 -19.8,14.3 -30.8,16.49 -4.4,1.51 -11,2.21 -19.8,2.21 -15.4,0 -29,-3.3 -40.7,-9.9 -5.2,-3.7 -16.5,-12.5 -34.09,-26.4 l -26.41,-26.41 c -17.6,-20.488 -33,-39.601 -46.2,-57.191 -7.39,-11 -11.4,-17.199 -12.1,-18.699 -0.8,2.902 -1.5,6.601 -2.2,10.992 -0.8,4.41 -2.2,9.207 -4.4,14.308 -1.9,8.399 -7.3,13.09 -16.1,14.102 l -0.4,0.199 c -10.3,5.891 -16.9,10.598 -19.8,14.289 -5.1,5.11 -8.8,11.012 -11,17.61 l -3.3,11 c -4.4,13.199 -8.8,24 -13.2,32.5 -4.4,8.39 -11.4,15.49 -20.9,21.39 -11.7,7.31 -23.8,10.31 -36.3,8.81 -11,0 -20.9,-1.81 -29.7,-5.51 -11.7,-4.39 -26.4,-12.5 -44,-24.2 -24.9,-17.588 -47.3,-39.6 -67.1,-65.99 -12.5,-19.008 -22.4,-37.5 -29.6,-55.61 -4,-6.3 -8.5,-12.691 -13.3,-19.199 -11,-16.09 -24.2,-31.891 -39.6,-47.289 -10.3,-8.801 -16.89,-13.613 -19.8,-14.312 -5.1,-0.688 -9.2,0 -12.09,2.21 -4.41,2.899 -6.61,9.2 -6.61,18.7 0,13.191 3.3,31.492 9.9,55 5.9,18.3 13.6,38.5 23.1,60.5 l 20.9,50.59 26.4,8.8 35.2,13.21 c 25.7,10.99 45.5,17.59 59.4,19.8 l 2.2,1.09 c 4.4,0.71 8.1,2.81 11,6.11 2.9,3.2 4.8,7.1 5.5,11.49 0.7,5.91 -0.7,11.01 -4.4,15.4 -3.7,4.41 -8.4,7.31 -14.3,8.81 l -15.4,1.09 c -12.5,0 -27.5,-2.19 -45.1,-6.6 -8.1,-2.19 -17.6,-5.09 -28.6,-8.8 14.7,30.1 37.4,74.41 68.2,133.1 l 56.1,107.81 14.3,28.6 c 48.4,93.9 82.5,165.4 102.3,214.5 3.7,10.3 1.5,18.7 -6.6,25.3 -2.9,2.9 -7.3,4.4 -13.2,4.4 -8.1,0 -13.6,-2.6 -16.5,-7.7 -25.7,-32.3 -48.79,-65.3 -69.3,-99 -20.5,-33.71 -45.5,-78.1 -74.8,-133.1 -11,-20.5 -26.8,-51.3 -47.3,-92.4 l -14.3,-28.61 -59.4,-122.1 c -8.8,-16.09 -17.6,-35.19 -26.4,-57.19 -14.7,-2.9 -26,-4.81 -34.1,-5.5 -4.4,-0.7 -8.4,-2.61 -12.1,-5.51 -3.7,-2.89 -5.9,-6.59 -6.6,-10.99 -0.7,-5.9 0.4,-11.21 3.3,-15.901 2.9,-4.809 7.3,-7.899 13.2,-9.41 5.9,-1.489 10.6,-2.188 14.3,-2.188 l -8.8,-18.711 c -5.1,-12.191 -9.7,-23.789 -13.8,-34.601 -8.7,5.101 -14.4,9.301 -17,12.601 -5.1,5.11 -8.8,11.012 -11,17.61 l -3.3,11 c -4.4,13.199 -8.8,24 -13.2,32.5 -4.4,8.39 -11.4,15.49 -20.9,21.39 -11.7,7.31 -23.8,10.31 -36.3,8.81 -10.99,0 -20.9,-1.81 -29.7,-5.51 -11.7,-4.39 -26.4,-12.5 -44,-24.2 -24.9,-17.588 -47.29,-39.6 -67.1,-65.99 -2.5,-3.801 -4.9,-7.598 -7.2,-11.41 -3.5,-1.891 -6.2,-5.098 -8.2,-9.489 -12.5,-25.699 -27.5,-49.902 -45.1,-72.609 -14.69,-18.293 -23.5,-28.992 -26.4,-31.891 -8.8,-7.312 -15.4,-12.101 -19.8,-14.301 -4.4,-1.5 -7.7,-2.21 -9.9,-2.21 h -2.2 c -4.4,0.71 -6.6,5.5 -6.6,14.312 0,5.098 0.7,10.598 2.2,16.488 1.5,5.899 2.9,10.309 4.4,13.211 3.7,11.699 12.1,28.598 25.3,50.59 19.1,27.899 42.9,58.699 71.5,92.41 4.4,5.891 6.6,12.099 6.6,18.699 0,5.9 -1.1,10.3 -3.3,13.2 -2.2,5.1 -5.5,8.99 -9.9,11.49 -4.4,2.6 -9.2,3.91 -14.3,3.91 -5.1,0 -9.9,-1.1 -14.3,-3.3 -3.7,-2.21 -13.9,-6.6 -30.8,-13.2 -7.3,-2.2 -18.3,-4.81 -33,-7.7 -5.1,-0.7 -13.2,-1.1 -24.19,-1.1 h -8.81 c -9.5,0 -21.6,2.19 -36.3,6.6 -7.3,1.49 -14.1,0.4 -20.3,-3.3 -6.3,-3.7 -10.1,-9.2 -11.6,-16.51 l -12.1,-37.398 c -3.7,-13.891 -7.7,-25.692 -12.1,-35.192 l -1.1,-1.109 c -1.5,-4.391 -1.6,-8.992 -0.5,-13.801 1.1,-4.691 3.4,-8.59 7.1,-11.488 3.7,-2.902 8.1,-4.402 13.21,-4.402 6.59,0 12.09,2.59 16.49,7.699 9.5,13.191 18,25.293 25.3,36.301 l 7.7,12.101 20.9,-1.101 h 18.7 l -12.1,-14.301 c -16.1,-24.899 -27.5,-45.109 -34.1,-60.5 -4.4,-13.199 -7.3,-26.41 -8.8,-39.609 0,-17.598 1.8,-31.891 5.5,-42.891 2.2,-8.098 6.4,-16 12.7,-23.598 6.2,-7.812 13.3,-13.801 21.4,-18.211 10.3,-5.09 21.6,-7.691 34.1,-7.691 7.3,0 13.2,0.691 17.6,2.203 5.1,0.699 12.11,3.297 20.9,7.688 l 17.6,12.109 c 8.8,8.101 16.9,16.902 24.2,26.402 0.8,0.989 1.6,2 2.4,3.09 2.5,-8.699 7.2,-16.992 14.1,-25.09 8.1,-9.511 16.9,-16.902 26.4,-22.011 15.4,-7.29 31.2,-10.989 47.3,-10.989 5.9,0 10.3,0.399 13.2,1.098 18.3,2.203 36.3,9.203 53.9,20.902 13.9,8.801 26.8,19.789 38.5,33 11,13.891 20.5,27.5 28.61,40.699 10.99,20.5 18.69,42.2 23.09,64.891 8.1,-1.699 14.6,-2.992 19.5,-3.992 -7.1,-24 -10.7,-45.699 -10.7,-65.297 0.7,-11 2,-20.203 3.8,-27.5 1.9,-7.312 5.4,-15 10.5,-23.102 4.4,-8.808 11.7,-16.5 22,-23.101 7.3,-5.098 16.5,-8.399 27.5,-9.91 2.9,-0.688 7,-1.09 12.1,-1.09 15.4,0 29.5,3.992 42.3,12.101 12.9,8.09 23.7,17.602 32.5,28.59 1.9,2.102 3.8,4.41 5.8,7 2.7,-7.289 7,-14.39 12.9,-21.289 8.1,-9.511 16.9,-16.902 26.4,-22.011 15.4,-7.29 31.2,-10.989 47.31,-10.989 5.89,0 10.29,0.399 13.19,1.098 18.3,2.203 36.3,9.203 53.9,20.902 13.9,8.801 26.8,19.789 38.5,33 11,13.891 20.5,27.5 28.6,40.699 11,20.5 18.7,42.2 23.1,64.891 6.6,-1.391 12.1,-2.5 16.6,-3.492 0.7,-6.699 1,-13.609 1,-20.707 l -1.1,-28.59 c -1.5,-14.711 -3,-25.703 -4.4,-33.012 -0.8,-10.289 -2.6,-21.3 -5.5,-33 -1.5,-5.89 -1.3,-11.601 0.5,-17.101 1.8,-5.489 5.3,-9.688 10.5,-12.59 5.11,-2.899 10.2,-4.41 15.4,-4.41 11,0 19,4.011 24.2,12.101 l 2.2,4.41 c 14.6,22 25.3,38.489 31.9,49.5 18.3,30.102 31.5,50.59 39.6,61.602 17.6,23.5 31.1,40.289 40.7,50.598 l 22,22 c 2.2,1.492 5.8,4.199 11,8.199 5.1,4.09 8.8,6.5 11,7.203 1.4,0.688 3.3,1.09 5.5,1.09 1.4,-2.902 2.2,-7.692 2.2,-14.293 v -1.109 c 0,-5.098 -0.8,-12.098 -2.2,-20.899 l -2.2,-8.801 c -10.3,-32.988 -27.5,-72.59 -51.7,-118.789 l -1.1,-3.312 c -2.2,-4.387 -3.3,-9.5 -3.3,-15.399 0,-12.5 5.1,-22 15.4,-28.59 5.1,-2.898 11,-4.398 17.6,-4.398 12.4,0 22,5.488 28.6,16.5 l 2.2,2.199 v 1.098 c 18.3,30.793 35.2,55 50.6,72.601 22.7,26.399 45.4,45.801 68.2,58.301 6.6,4.391 9.9,10.598 9.9,18.699 0,2.899 0,4.399 0,4.399 0,0 -0.4,1.101 -1.1,3.301" /><path
         id="path16"
         style="fill:#000000;fill-opacity:1;fill-rule:nonzero;stroke:none"
         d="m 4162.52,1067.47 c -6.6,7.31 -8.09,15 -4.39,23.11 l 12.1,23.1 13.19,19.8 1.1,1.09 c 6.6,7.31 14.6,11.01 24.2,11.01 5.8,0 11.7,-1.9 17.6,-5.5 7.3,-6.6 11.01,-9.91 11.01,-9.91 0,0 0,-4.79 0,-14.3 0,-5.9 -1.91,-11.79 -5.51,-17.59 -3.69,-3.71 -6.3,-5.9 -7.7,-6.61 l -15.4,-10.99 -13.2,-11.01 -2.2,-2.2 c -4.39,-4.39 -9.6,-6.6 -15.4,-6.6 -5.9,0 -10.99,2.21 -15.4,6.6" /><path
         id="path18"
         style="fill:#000000;fill-opacity:1;fill-rule:nonzero;stroke:none"
         d="m 5089.62,924.48 c 5.9,8.801 10.7,15 14.31,18.7 11.79,14.601 24.2,25.59 37.39,33 4.4,2.902 8.11,4.691 11.01,5.492 2.99,1.41 5.89,2.207 8.79,2.207 3,0 4.8,-0.399 5.5,-1.098 5.9,-2.199 8.8,-7.402 8.8,-15.402 -0.7,-11.797 -5.5,-23.109 -14.3,-34.098 -2.9,-3.711 -7.99,-8.5 -15.4,-14.301 -8.79,-4.41 -15.7,-7.398 -20.89,-8.8 -14.6,-4.399 -30.81,-5.91 -48.4,-4.399 z m 411.41,-70.398 c -1.41,5.09 -5.51,11.699 -12.1,19.797 -7.31,6.59 -16.81,12.793 -28.61,18.691 l -25.3,8.809 c -3.59,1.402 -9.7,3.801 -18.09,7.101 -8.4,3.29 -14.91,6.801 -19.31,10.5 -6.59,4.391 -11,9.899 -13.19,16.489 0,6.601 2.19,12.41 6.6,17.613 6.59,8 16.19,15 28.59,20.898 5.9,2.2 11.41,3.301 16.5,3.301 h 6.61 c 3.7,-1.5 5.89,-3.011 6.59,-4.402 l 3.3,-7.699 c 0.8,-7.399 -3.3,-17.61 -12.1,-30.801 -2.2,-3 -3.3,-7 -3.3,-12.098 0,-5.902 2.21,-11.011 6.6,-15.402 5.2,-3.699 9.9,-5.5 14.31,-5.5 5.89,0 10.99,2.203 15.4,6.59 16.89,16.812 26.09,35.211 27.5,55 1.49,13.91 -1.11,26.011 -7.71,36.301 -6.6,11.71 -16.5,20.51 -29.7,26.41 -11,4.39 -22,6.6 -32.99,6.6 -11.7,0 -23.11,-2.21 -34.11,-6.6 -20.49,-8.8 -37,-19.5 -49.5,-31.91 -16.1,-17.59 -24.2,-36.301 -24.2,-56.09 l 1.11,-12.098 c 2.19,-12.5 8.09,-24.203 17.59,-35.203 5.2,-6.609 13.6,-13.609 25.3,-20.899 8.81,-4.41 18.2,-8.5 28.1,-12.101 9.91,-3.699 17.01,-6.297 21.4,-7.707 14.71,-5.192 23.91,-10.293 27.5,-15.402 l -3.3,-5.5 c -5.1,-5.188 -8.4,-8.09 -9.89,-8.801 l -14.31,-6.598 c -14.6,-5.191 -30.8,-7.691 -48.4,-7.691 -10.99,0 -18.99,0.3 -24.2,1.09 -15.4,2.902 -25.99,6.199 -31.9,9.902 -8,2.898 -13.9,8.398 -17.6,16.508 -2.2,3.59 -3.3,8.402 -3.3,14.289 0,17.601 4.4,34.41 13.2,50.613 1.51,2.199 2.2,5.5 2.2,9.887 0,5.113 -1.8,10.211 -5.5,15.402 -3.7,3.699 -7.9,5.899 -12.69,6.41 -0.91,0.098 -1.81,0.188 -2.71,0.188 -0.99,0 -2.1,-0.09 -3,-0.188 -2.19,-0.301 -4.2,-1.011 -6.1,-2 -2.7,-1.511 -5.2,-3.699 -7.39,-6.601 -6.6,-10.098 -13.51,-19.508 -20.91,-28.098 -15.69,-19 -33,-34.602 -51.7,-46.703 -26.4,-18.41 -56.09,-30.797 -89.1,-37.399 -8.8,-1.511 -15.4,-2.21 -19.8,-2.21 -7.3,0 -13.2,1.109 -17.59,3.3 -2.9,0.711 -6.61,2.5 -11.01,5.512 -3.59,3.59 -5.8,7.297 -6.6,11 -1.4,2.898 -2.2,6.598 -2.2,10.988 0,8.809 2.2,18.7 6.6,29.711 3,-1.5 7.4,-3.011 13.21,-4.402 11.79,-2.199 24.19,-3.309 37.39,-3.309 5.91,0 15.4,0.711 28.6,2.2 14.7,2.902 25.7,6.199 33,9.902 11.81,4.41 22,10.609 30.8,18.707 23.51,19 37.1,41 40.7,66 3,18.293 0.4,34.09 -7.7,47.301 -8.8,16.1 -21.59,26.39 -38.5,30.8 -8.8,2.19 -17.19,3.3 -25.3,3.3 -8.8,0 -15,-0.4 -18.7,-1.11 -13.19,-2.99 -24.89,-7.4 -35.2,-13.19 -17.59,-8.81 -35.49,-20.6 -53.89,-35.199 -8.81,-7.41 -16.51,-15.101 -23.11,-23.101 -11.7,-15.399 -17.9,-23.91 -18.7,-25.301 -3.9,-5.5 -7.5,-11 -10.8,-16.399 -1.2,-1.898 -2.3,-3.808 -3.5,-5.601 l -0.49,-0.899 -0.61,-1.3 c -3.19,-7 -6.89,-14.098 -11.09,-21.41 l -0.21,-0.5 c -12.6,-22.188 -29.39,-45.688 -50.3,-70.489 -10.2,-10.312 -16.4,-16.211 -18.69,-17.601 -6.6,-4.41 -11.71,-7 -15.4,-7.711 -1.41,-0.797 -3.3,-0.989 -5.51,-0.59 -2.2,0.402 -3.6,0.902 -4.3,1.703 -2.29,1.387 -3.2,4.5 -2.8,9.289 0.4,4.809 0.51,7.899 0.51,9.41 l 2.29,10.989 2.1,11.011 c 4.41,14.598 10.7,30.801 18.7,48.399 14.7,30 33.8,62.691 57.2,97.902 l 2.21,3.297 c 2.99,7.293 4.39,12.391 4.39,15.401 0,9.49 -3.6,16.8 -10.99,21.99 -4.41,4.41 -10.21,6.6 -17.61,6.6 -8,0 -15,-3.7 -20.9,-10.99 l -1.09,-1.11 -19.81,-22 -5.5,-5.5 c -15.4,-15.399 -24.5,-24.2 -27.5,-26.391 -8,-8.109 -17.59,-15.797 -28.6,-23.109 -9.49,-6.59 -19.4,-11.801 -29.7,-15.391 -5.1,-0.797 -9.1,-3.199 -12.1,-7.207 -2.9,-3.992 -4.4,-8.192 -4.4,-12.59 v -3.301 c 0.8,-5.199 3.2,-9.601 7.21,-13.211 2.19,-1.988 4.59,-3.488 7.09,-4.289 -8.6,-14.511 -18.1,-28.5 -28.5,-41.902 -14.7,-18.41 -23.5,-29 -26.4,-31.899 -8.8,-7.41 -15.4,-12.101 -19.8,-14.3 -4.4,-1.5 -7.7,-2.211 -9.89,-2.211 h -2.21 c -4.4,0.711 -6.59,5.511 -6.59,14.312 0,5.098 0.69,10.598 2.19,16.489 1.4,5.8 2.9,10.21 4.4,13.21 3.6,11.7 12.1,28.602 25.3,50.59 19,27.809 42.9,58.61 71.5,92.399 4.4,5.812 6.61,12.101 6.61,18.711 0,5.8 -1.11,10.2 -3.3,13.2 -2.21,5.1 -5.51,8.9 -9.91,11.49 -4.4,2.61 -9.2,3.91 -14.29,3.91 -5.21,0 -9.91,-1.1 -14.31,-3.3 -3.7,-2.21 -13.99,-6.6 -30.8,-13.2 -7.39,-2.2 -18.4,-4.8 -33,-7.7 -5.19,-0.8 -13.2,-1.1 -24.2,-1.1 h -8.8 c -9.6,0 -21.7,2.19 -36.3,6.6 -7.4,1.39 -14.2,0.3 -20.4,-3.3 -6.2,-3.7 -10.09,-9.2 -11.5,-16.51 l -12.1,-37.391 c -3.7,-14 -7.7,-25.699 -12.1,-35.199 l -1.09,-1.11 c -0.8,-2.101 -1.2,-4.289 -1.2,-6.59 -7.21,-15.3 -17.1,-31.41 -29.6,-48.41 -11.01,-16.191 -24.2,-31.89 -39.6,-47.289 -10.31,-8.801 -16.91,-13.609 -19.81,-14.301 -5.19,-0.8 -9.2,0 -12.1,2.2 -4.4,2.902 -6.6,9.101 -6.6,18.699 0,13.191 3.3,31.492 9.9,55 5.8,18.301 13.5,38.5 23.1,60.5 l 20.91,50.59 26.39,8.801 35.2,13.2 c 25.6,11.01 45.4,17.6 59.4,19.81 l 2.2,1.09 c 4.4,0.71 8,2.71 11.01,6.01 2.9,3.3 4.69,7.2 5.49,11.6 0.71,5.79 -0.8,11 -4.4,15.4 -3.7,4.4 -8.5,7.3 -14.3,8.8 l -15.4,1.09 c -12.5,0 -27.5,-2.19 -45.1,-6.6 -8.1,-2.2 -17.59,-5.19 -28.6,-8.8 14.6,30 37.4,74.41 68.2,133.11 l 56.1,107.8 14.3,28.6 c 48.4,93.79 82.5,165.3 102.3,214.5 3.6,10.2 1.41,18.7 -6.6,25.3 -3,2.89 -7.39,4.39 -13.2,4.39 -8.1,0 -13.6,-2.59 -16.5,-7.69 -25.7,-32.31 -48.8,-65.3 -69.3,-99 -20.6,-33.8 -45.49,-78.11 -74.8,-133.11 -11,-20.6 -26.8,-51.39 -47.3,-92.39 l -14.3,-28.61 -59.4,-122.1 c -8.8,-16.2 -17.59,-35.19 -26.39,-57.19 -14.71,-3 -26.11,-4.81 -34.1,-5.5 -4.41,-0.8 -8.51,-2.6 -12.1,-5.5 -3.71,-3.01 -5.9,-6.6 -6.61,-11.01 -0.8,-5.89 0.31,-11.2 3.3,-15.99 2.91,-4.808 7.3,-7.898 13.2,-9.308 5.8,-1.492 10.6,-2.203 14.3,-2.203 l -8.79,-18.699 c -10.31,-25 -18.71,-47 -25.31,-65.989 -6.9,-20.5 -11.2,-39.5 -13.1,-56.91 -0.79,3.801 -1.8,7.41 -3.29,10.711 -1.51,5.09 -5.51,11.699 -12.1,19.797 -7.41,6.59 -16.91,12.793 -28.61,18.691 l -25.3,8.809 c -3.7,1.402 -9.79,3.801 -18.2,7.101 -8.4,3.29 -14.8,6.801 -19.2,10.5 -6.59,4.391 -11,9.899 -13.19,16.489 0,6.601 2.19,12.41 6.6,17.613 6.59,8 16.09,15 28.59,20.898 5.8,2.2 11.3,3.301 16.5,3.301 h 6.61 c 3.59,-1.5 5.8,-3.011 6.59,-4.402 l 3.3,-7.699 c 0.7,-7.399 -3.3,-17.61 -12.1,-30.801 -2.2,-3 -3.3,-7 -3.3,-12.098 0,-5.902 2.21,-11.011 6.6,-15.402 5.11,-3.699 9.9,-5.5 14.31,-5.5 5.8,0 10.99,2.203 15.4,6.59 16.79,16.812 25.99,35.211 27.5,55 1.39,13.91 -1.11,26.011 -7.71,36.301 -6.6,11.71 -16.5,20.51 -29.7,26.41 -11,4.39 -22,6.6 -32.99,6.6 -11.81,0 -23.11,-2.21 -34.11,-6.6 -20.6,-8.8 -37.09,-19.5 -49.5,-31.91 -16.2,-17.59 -24.2,-36.301 -24.2,-56.09 l 1.11,-12.098 c 2.19,-12.5 8,-24.203 17.59,-35.203 5.1,-6.609 13.5,-13.609 25.3,-20.899 8.81,-4.41 18.1,-8.5 28.01,-12.101 9.89,-3.699 17.1,-6.297 21.49,-7.707 14.6,-5.192 23.8,-10.293 27.5,-15.402 l -3.3,-5.5 c -5.2,-5.188 -8.5,-8.09 -9.89,-8.801 l -14.31,-6.598 c -14.7,-5.191 -30.8,-7.691 -48.4,-7.691 -10.99,0 -19.1,0.3 -24.2,1.09 -15.4,2.902 -26.1,6.199 -31.9,9.902 -8.1,2.898 -14,8.398 -17.6,16.508 -2.2,3.59 -3.3,8.402 -3.3,14.289 0,17.601 4.4,34.41 13.2,50.613 1.4,2.199 2.2,5.5 2.2,9.887 0,5.113 -1.89,10.211 -5.5,15.402 -4.39,4.41 -9.6,6.598 -15.4,6.598 -1.8,0 -3.6,-0.188 -5.3,-0.699 -1.59,0.511 -3.1,0.699 -4.6,0.699 -8.8,0 -15.1,-4.098 -18.7,-12.09 l -1.1,-2.199 c -13.2,-28.61 -33.79,-59.41 -61.6,-92.399 -10.3,-10.312 -16.5,-16.211 -18.7,-17.601 -6.6,-4.41 -11.8,-7 -15.4,-7.711 -1.49,-0.797 -3.3,-0.989 -5.5,-0.59 -2.19,0.402 -3.7,0.902 -4.4,1.703 -2.2,1.387 -3.19,4.5 -2.79,9.289 0.4,4.809 0.59,7.899 0.59,9.41 l 2.2,10.989 2.21,11.011 c 4.39,14.598 10.59,30.801 18.7,48.399 14.6,30 33.69,62.691 57.19,97.902 l 2.2,3.297 c 2.9,7.293 4.41,12.391 4.41,15.401 0,9.49 -3.71,16.8 -11.01,21.99 -4.39,4.41 -10.29,6.6 -17.6,6.6 -8.09,0 -15.1,-3.7 -20.9,-10.99 l -1.1,-1.11 -19.79,-22 -5.5,-5.5 c -15.4,-15.399 -24.61,-24.2 -27.5,-26.391 -8.11,-8.109 -17.61,-15.797 -28.61,-23.109 -9.6,-6.59 -19.5,-11.801 -29.69,-15.391 -4.81,-0.699 -8.61,-2.797 -11.31,-6.309 1,6.012 1.4,12.5 1.4,19.5 0,13.91 -2.59,27.5 -7.7,40.711 -0.8,1.391 -1.5,3.301 -2.2,5.5 -0.8,2.188 -2.2,4.688 -4.39,7.699 l -4.41,6.59 -6.6,7.71 c -9.6,8.8 -19.79,14.29 -30.8,16.49 -4.39,1.41 -11,2.21 -19.79,2.21 -15.4,0 -29.01,-3.3 -40.71,-9.9 -5.19,-3.7 -16.5,-12.5 -34.1,-26.4 l -26.4,-26.41 c -17.59,-20.59 -32.99,-39.598 -46.2,-57.188 -7.4,-11 -11.39,-17.312 -12.1,-18.703 -0.8,2.902 -1.5,6.601 -2.19,11 -0.71,4.402 -2.21,9.09 -4.41,14.301 -0.8,3.59 -2.29,6.492 -4.29,8.699 l -0.21,0.191 c -0.6,0.211 -3.1,1.301 -7.6,3.211 -2.19,1.098 -4.4,1.789 -6.6,2.098 l -1.09,0.09 h -1.11 c -1,0 -2,-0.09 -2.99,-0.188 h -0.21 c -7.1,-0.902 -12.29,-4.902 -15.5,-11.902 l -1.1,-2.199 c -13.19,-28.61 -33.7,-59.41 -61.59,-92.399 -10.31,-10.312 -16.51,-16.211 -18.7,-17.601 -6.61,-4.41 -11.7,-7 -15.4,-7.711 -1.51,-0.797 -3.31,-0.989 -5.51,-0.59 -2.2,0.402 -3.69,0.902 -4.4,1.703 -2.19,1.387 -3.1,4.5 -2.8,9.289 0.4,4.809 0.61,7.899 0.61,9.41 l 2.19,10.989 2.2,11.011 c 4.4,14.598 10.61,30.801 18.7,48.399 14.7,30 33.7,62.691 57.2,97.902 l 2.21,3.297 c 2.9,7.293 4.39,12.391 4.39,15.401 0,9.49 -3.7,16.8 -11,21.99 -4.4,4.41 -10.3,6.6 -17.59,6.6 -8.11,0 -15,-3.7 -20.91,-10.99 l -1.1,-1.11 -19.8,-22 -5.5,-5.5 c -15.4,-15.399 -24.6,-24.2 -27.5,-26.391 -8.09,-8.109 -17.6,-15.797 -28.6,-23.109 -6.9,-4.79 -14,-8.801 -21.3,-11.989 2.4,5.289 4.8,10.5 7.3,15.688 26.1,54.911 55.5,109.811 88.4,164.601 32.81,54.9 69.7,110.81 110.71,167.91 1.79,6.19 1.2,13.8 -1.91,22.8 -3.09,8.99 -7.6,17.5 -13.49,25.6 -5.9,8 -12.5,15.1 -20,21.3 -7.41,6.2 -14.6,10 -21.41,11.2 v 1.9 l -0.9,-1.01 h -2.8 c -1.9,-1.79 -2.79,-3.39 -2.79,-4.59 -44.6,-36.01 -89.41,-78.6 -134.41,-127.91 -44.9,-49.29 -87.9,-100.39 -128.8,-153.39 -40.9,-53.1 -78.7,-105.4 -113.4,-157.208 -34.8,-51.793 -64.5,-98.09 -89.29,-138.992 12.39,44.601 26.99,86.8 43.69,126.402 16.71,39.688 36.1,79.199 58.1,118.598 22.01,39.39 46.8,79.7 74.4,120.9 27.61,41.19 58.81,85.99 93.5,134.4 1.8,6.19 1.21,13.8 -1.9,22.8 -3.1,8.99 -7.6,17.5 -13.5,25.6 -5.89,8 -12.5,15.1 -19.9,21.3 -7.5,6.2 -14.6,10 -21.4,11.2 v 1.9 l -1,-1.01 h -2.79 c -1.81,-1.79 -2.81,-3.39 -2.81,-4.59 -40.9,-32.91 -83.3,-71.6 -127.4,-116.3 -43.99,-44.6 -87.4,-91.61 -130.19,-140.91 -42.71,-49.29 -83.8,-98.7 -123.21,-148.298 -39.4,-49.602 -74.6,-95.5 -105.5,-137.602 14.2,28.512 30.2,58.91 47.9,91.11 17.6,32.199 35.81,64.601 54.4,97.2 18.6,32.5 37.21,64.59 55.8,96.2 18.6,31.7 36.1,60.8 52.5,87.5 16.41,26.6 31.2,50.2 44.2,70.6 13.01,20.5 23.2,36 30.7,46.5 4.9,7.5 5.5,16.5 1.8,27 -3.7,10.59 -9.89,20.5 -18.59,29.8 -8.71,9.29 -18.91,16.7 -30.71,22.3 -11.7,5.6 -22.9,6.5 -33.4,2.8 -24.2,-9.31 -49.29,-20.9 -75.4,-34.9 -26,-13.9 -52,-27.9 -78.1,-41.8 -26,-14 -51.1,-26.7 -75.29,-38.2 -24.2,-11.4 -45.9,-19.41 -65.11,-23.7 -102.89,-21.1 -165.6,-15.2 -187.9,17.7 -1.8,1.8 -3.6,4.49 -5.1,7.9 -1.6,3.4 -3.2,5.3 -5.1,5.6 -1.9,0.3 -3.9,-1.6 -6.1,-5.6 -2.1,-4 -4.5,-11.9 -6.9,-23.7 -4.4,-19.9 -4.1,-36.61 0.9,-50.2 5,-13.71 12.9,-24.51 23.7,-32.6 10.9,-8.1 23.61,-13.9 38.1,-17.7 14.6,-3.7 29.31,-5.5 44.2,-5.5 32.9,0 63.1,4.9 90.7,14.79 27.6,9.91 54.1,22.71 79.5,38.21 25.4,15.5 50.5,32.1 75.31,49.7 24.79,17.7 50.89,34.6 78.19,50.69 16.7,9.91 29.1,17.21 37.21,21.91 7.99,4.6 11.99,5.7 11.99,3.2 0,-2.5 -3.5,-9.11 -10.6,-20 -7.19,-10.8 -17.59,-26.81 -31.2,-47.9 -11.2,-17.3 -22.29,-33.8 -33.49,-49.31 -11.11,-15.49 -23.11,-32.5 -35.8,-51.09 -12.71,-18.6 -26.51,-39.71 -41.41,-63.2 -14.89,-23.61 -31.4,-51.8 -49.7,-84.7 -18.3,-32.801 -38.49,-71.5 -60.5,-115.801 -22,-44.309 -46.3,-96.199 -72.99,-155.699 -1.81,-8.711 -1.41,-17.5 1.39,-26.508 2.8,-8.992 7,-17.293 12.6,-24.703 5.5,-7.399 12.1,-13.887 19.5,-19.5 7.4,-5.59 14.9,-9.289 22.31,-11.199 12.39,-2.5 21.89,-4.489 28.39,-5.989 6.5,-1.609 10.41,3.199 11.61,14.399 21.7,31.59 49.09,68.992 82.29,112.101 33.2,43 69.3,88.5 108.4,136.199 39,47.7 79.6,95.9 121.81,144.6 42.1,48.69 83.09,94.1 122.69,136.3 -23.49,-36 -45.7,-71.2 -66.39,-105.61 -20.81,-34.39 -39.91,-69.69 -57.21,-105.989 -17.39,-36.301 -32.9,-74.699 -46.5,-115.312 -13.7,-40.699 -25.49,-85.09 -35.4,-133.489 -1.79,-6.199 -1.39,-13 1.4,-20.5 2.8,-7.398 6.81,-14.71 12.1,-21.808 5.3,-7.102 11.6,-13.793 19.1,-20 7.4,-6.203 14.81,-11.203 22.31,-14.902 12.39,-6.801 20,-8.801 22.79,-5.989 2.8,2.801 4.8,8.789 6,18.098 21.7,32.301 47.7,71.301 78.1,117.203 30.4,45.898 63.3,93.797 98.6,143.699 35.4,49.891 71.9,99.599 109.8,149.199 37.8,49.6 75,94.6 111.6,134.9 -27.29,-44 -53.19,-87.61 -77.69,-130.7 -24.51,-43.11 -47.01,-86.91 -67.41,-131.598 -20.5,-44.602 -38.8,-90.602 -54.9,-138.102 -16.09,-47.398 -29.39,-96.808 -40,-148.3 -1.2,-6.2 -0.6,-13.008 1.9,-20.508 2.41,-7.391 6.5,-14.703 12.1,-21.793 5.5,-7.098 11.9,-13.797 19,-20 7.21,-6.207 14.8,-11.207 22.8,-14.91 7.5,-4.289 13,-6.789 16.8,-7.387 3.7,-0.703 6.31,0.289 7.9,2.699 1.5,2.5 2.61,6.098 3.2,10.699 0.61,4.7 1.6,10.399 2.8,17.2 11.8,60.199 27.01,118.492 45.6,174.902 12.4,37.5 26.3,74.598 42,111.387 4.01,-3.59 8.5,-5.399 13.61,-5.399 1.49,0 2.59,0.309 3.3,1.11 5.09,0 9.89,1.09 14.29,3.3 -5.9,-14.71 -9.5,-26.101 -10.99,-34.101 -3.7,-12.5 -5.51,-24.598 -5.51,-36.297 0,-16.203 3.3,-31.203 9.9,-45.102 3.7,-8.101 9.2,-15.3 16.51,-21.5 7.29,-6.199 15,-10.8 23.09,-13.699 7.31,-2.199 15,-3.312 23.11,-3.312 10.29,0 18.69,1.41 25.29,4.41 13.91,4.391 26.01,11.703 36.3,22 2.9,2.203 10.6,10.601 23.1,25.293 5,6.609 12.01,17.207 21,31.808 -0.8,-5.699 -1.6,-10.398 -2.29,-14.21 -0.71,-10.29 -2.61,-21.301 -5.5,-33 -1.51,-5.891 -1.31,-11.598 0.5,-17.098 1.89,-5.492 5.29,-9.692 10.49,-12.59 5.1,-3 10.2,-4.41 15.4,-4.41 11,0 19,4.008 24.2,12.098 l 2.2,4.41 c 14.6,22 25.3,38.492 31.9,49.5 18.31,30 31.5,50.59 39.6,61.601 17.6,23.399 31.1,40.289 40.71,50.598 l 21.99,22 c 2.21,1.391 5.8,4.203 11.01,8.203 5.09,3.988 8.79,6.398 10.99,7.199 1.4,0.699 3.3,1.098 5.5,1.098 1.5,-3.008 2.21,-7.699 2.21,-14.309 v -1.09 c 0,-5.199 -0.71,-12.101 -2.21,-20.91 l -2.2,-8.8 c -10.3,-32.989 -27.5,-72.59 -51.7,-118.801 l -1.1,-3.297 c -2.2,-4.391 -3.3,-9.602 -3.3,-15.402 0,-12.5 5.11,-22 15.4,-28.59 5.11,-3.008 11,-4.399 17.61,-4.399 12.39,0 21.99,5.489 28.59,16.5 l 2.21,2.199 v 1.102 c 18.29,30.797 35.19,55 50.59,72.598 14.91,17.402 29.8,31.699 44.8,42.902 -2.6,-7.5 -4.3,-13.801 -5.2,-18.703 -3.7,-12.5 -5.5,-24.598 -5.5,-36.297 0,-16.203 3.31,-31.203 9.91,-45.102 3.59,-8.101 9.09,-15.3 16.49,-21.5 7.31,-6.199 15,-10.8 23.11,-13.699 7.29,-2.199 15,-3.312 23.09,-3.312 10.21,0 18.7,1.41 25.3,4.41 13.9,4.391 26,11.703 36.3,22 2.9,2.203 10.6,10.601 23.1,25.293 1.5,2.008 3.2,4.41 5.11,7.098 7.19,-14.391 18.69,-27.098 34.49,-37.899 16.81,-10.992 35.51,-18.402 56.1,-21.992 12.4,-2.207 24.2,-3.297 35.2,-3.297 27.11,0 52.8,5.797 77,17.598 11.7,5.8 20.5,10.992 26.41,15.402 8.79,6.598 16.49,15.398 23.09,26.387 5,7.711 8.4,15.613 10.3,23.613 0.81,-7.902 1.9,-14.703 3.31,-20.301 1.79,-7.41 5.29,-15.101 10.49,-23.101 4.4,-8.801 11.7,-16.5 22.01,-23.11 7.29,-5.191 16.49,-8.488 27.5,-9.898 2.9,-0.793 6.89,-1.09 12.09,-1.09 15.41,0 29.51,3.988 42.3,12.098 12.8,8 23.7,17.601 32.5,28.59 11.01,12.402 24.5,32.609 40.7,60.511 1.4,2.899 5.6,11 12.6,24.199 7,13.192 13,27.102 18.2,41.801 7.3,10.301 13.9,19.801 19.8,28.598 l 7.7,12.101 20.9,-1.101 h 18.7 l -12.1,-14.297 c -16.2,-25 -27.5,-45.102 -34.1,-60.5 -4.4,-13.203 -7.4,-26.41 -8.8,-39.602 0,-17.609 1.8,-31.898 5.5,-42.898 2.2,-8.113 6.4,-16.012 12.6,-23.703 6.2,-7.707 13.41,-13.699 21.5,-18.109 10.2,-5.188 21.6,-7.688 34.1,-7.688 7.3,0 13.2,0.688 17.6,2.199 5.1,0.699 12.1,3.301 20.9,7.699 l 17.6,12.102 c 8.81,8 16.8,16.797 24.21,26.398 5.19,6.5 10.59,13.801 15.9,21.899 1.29,-11.598 4.39,-22.609 9.29,-32.899 3.7,-8.101 9.2,-15.3 16.51,-21.5 7.39,-6.199 15.09,-10.8 23.09,-13.699 7.4,-2.199 15.1,-3.312 23.1,-3.312 10.3,0 18.7,1.41 25.3,4.41 14,4.391 26.1,11.703 36.3,22 3.01,2.203 10.7,10.601 23.2,25.293 1.3,1.699 2.7,3.707 4.2,5.898 5.4,-11.59 12,-21.59 19.9,-30.101 12.5,-10.989 25,-18.699 37.41,-23.09 13.19,-5.207 27.19,-7.707 41.79,-7.707 8.1,0 19.51,1.41 34.1,4.41 41.8,10.188 78.71,30.398 110.6,60.5 1.81,1.699 3.6,3.387 5.3,5.297 6.9,-17.899 19.6,-33.199 38.1,-46.008 16.9,-10.992 35.6,-18.402 56.1,-21.992 12.5,-2.207 24.2,-3.297 35.2,-3.297 27.2,0 52.8,5.797 77,17.598 11.81,5.8 20.61,10.992 26.41,15.402 8.79,6.598 16.49,15.398 23.09,26.387 8.11,12.41 12.1,25.312 12.1,38.511 0,8.801 -1.4,16.489 -4.39,23.102" /><path
         id="path20"
         style="fill:#000000;fill-opacity:1;fill-rule:nonzero;stroke:none"
         d="m 3733.53,1145.58 c 5.9,0 11.7,-1.9 17.59,-5.5 7.3,-6.6 11,-9.91 11,-9.91 0,0 0,-4.79 0,-14.3 0,-5.9 -1.8,-11.79 -5.5,-17.59 -3.7,-3.71 -6.2,-5.9 -7.69,-6.61 l -15.4,-10.99 -13.21,-11.01 -2.19,-2.2 c -4.41,-4.39 -9.51,-6.6 -15.4,-6.6 -5.91,0 -11.01,2.21 -15.4,6.6 -6.61,7.31 -8.11,15 -4.41,23.11 l 12.1,23.1 13.2,19.8 1.1,1.09 c 6.6,7.31 14.7,11.01 24.21,11.01" /><path
         id="path22"
         style="fill:#000000;fill-opacity:1;fill-rule:nonzero;stroke:none"
         d="m 3722.52,929.879 c 2.2,-0.309 4.41,-1 6.6,-2.098 4.5,-1.91 7,-3 7.6,-3.211 -3.3,3.399 -8,5.211 -14.2,5.309 z m -4.39,0.09 -0.8,-0.188 c 0.99,0.098 1.99,0.188 2.99,0.188 h -2.19" /><path
         id="path24"
         style="fill:#000000;fill-opacity:1;fill-rule:nonzero;stroke:none"
         d="m 5014.92,917.879 c 1.2,1.793 2.3,3.703 3.5,5.601 -1.3,-1.601 -2.5,-3.41 -3.5,-5.601 z m 49.51,222.201 c -5.81,3.6 -11.7,5.5 -17.61,5.5 -9.49,0 -17.6,-3.7 -24.2,-11.01 l -1,-1.09 -13.3,-19.8 -12.1,-23.1 c -3.6,-8.11 -2.1,-15.8 4.41,-23.11 4.39,-4.39 9.6,-6.6 15.4,-6.6 5.9,0 10.99,2.21 15.4,6.6 l 2.29,2.2 13.1,11.01 15.4,10.99 c 1.5,0.71 4.1,2.9 7.7,6.61 3.7,5.8 5.5,11.69 5.5,17.59 0,9.51 0,14.3 0,14.3 0,0 -3.6,3.31 -10.99,9.91" /><path
         id="path26"
         style="fill:#000000;fill-opacity:1;fill-rule:nonzero;stroke:none"
         d="m 5002.73,894.27 c 4.2,7.312 7.9,14.41 11.09,21.41 l 0.61,1.3 c -4.31,-7.601 -8.31,-15.21 -11.7,-22.71" /><path
         id="path28"
         style="fill:#000000;fill-opacity:1;fill-rule:nonzero;stroke:none"
         d="m 5258.02,893.082 c 7.4,8.59 14.31,18 20.91,28.098 2.19,2.902 4.69,5.09 7.39,6.601 -2.3,-0.902 -4.39,-2.5 -6.3,-4.41 -8.5,-9.101 -15.8,-19.199 -22,-30.289 z m 34.4,36.699 c -2.19,-0.301 -4.2,-0.902 -6.1,-2 1.9,0.989 3.91,1.699 6.1,2" /><path
         id="path30"
         style="fill:#000000;fill-opacity:1;fill-rule:nonzero;stroke:none"
         d="m 2228.18,1958.92 c -3.56,-31.01 -13.32,-66.5 -29.35,-106.4 -17.11,-37 -33.33,-68.02 -48.63,-93.06 -30.54,-50.29 -70.6,-104.87 -120.02,-163.87 -32.95,-39.94 -79.99,-88.07 -141.2,-144.29 -106.83,-95.81 -216.85,-172.56 -329.86,-230.04 -63.86,-32.39 -126.3,-56.58 -187.4,-72.68 -29.5,-8 -62.19,-14.21 -98.06,-18.7 -10.8,-2.1 -24.8,-3.61 -41.87,-4.2 l -3.19,-6.91 c -26.7,-63.71 -51.22,-123.43 -73.62,-179.071 -36.24,-88.687 -125.92,-380.469 -147.4,-416.449 -45.404,-70.871 -119.185,-35.879 -114.596,17.551 3.25,34.871 72.864,285.39 126.166,430.219 l 63.57,157.16 8.96,20.5 c -8.22,3.7 -15.44,7.4 -21.8,11 -35.39,20.9 -59.26,47.99 -71.607,81.28 -7.71,17.99 -11.855,36.98 -12.242,56.97 -0.406,17.89 1.856,36.68 6.778,56.36 5.816,29.18 16.771,61.15 32.951,95.91 5.12,11.19 13.89,17.58 26.61,19.18 6.31,0.8 10.61,0.3 12.68,-1.6 7.48,-2.2 12.59,-6.3 15.32,-12.29 2.83,-5.99 3.21,-12.78 1.24,-20.37 -9.73,-39.27 -15.49,-67.94 -17.29,-86.12 -0.96,-5.4 -1.34,-12.8 -1.04,-22.29 0.32,-16.89 3.75,-32.28 10.41,-46.17 9.29,-20.89 27.54,-36.48 54.82,-46.98 l 7.28,16.69 c 3.47,1.11 6.07,17.5 59.54,127.52 43.26,89.01 33.38,65.34 63.48,117.17 51.15,88.97 184.07,93.06 159.93,24.07 -3.18,-6.79 -90.94,-181 -90.94,-181 l -40.12,-90.35 -9.08,-19.79 c 8.08,1.59 16.87,3.49 26.3,5.69 18.95,4.5 35.72,8.8 50.46,12.69 53.67,14.2 108.81,35.89 165.32,65.18 101.46,52.95 201.47,124.58 300.03,215.07 51.84,46.63 94.74,91.05 128.73,133.37 42.24,50.6 78.08,100.49 107.7,149.47 35.53,62.43 56.06,113.49 61.51,153.17 1.75,17.04 2.51,29.31 2.38,36.68 -0.96,39.86 -11.08,70.17 -30.57,90.89 -13.06,14.15 -30.48,24.31 -52.24,30.59 -21.77,6.17 -45.86,8.07 -72.24,5.88 -43.29,-3.39 -98.35,-17.64 -165.42,-42.95 -50.24,-21.02 -98.37,-44.44 -144.37,-70.26 l -140.6,-93.5 c -14.59,-10.28 -243.16,-177.04 -332.43,-253.68 -5.25,-4.89 -11.48,-7.78 -18.89,-8.69 -10.5,-1.29 -18.57,1.91 -23.98,9.69 -4.27,3.59 -6.55,9.18 -6.68,16.57 -0.21,8.38 2.31,15.46 7.48,21.45 40.22,50.39 85.21,99.27 134.97,146.55 49.74,45.27 100.63,87.45 152.69,126.73 62.32,47.84 116.5,85.72 162.43,113.61 63.58,37.37 123.16,67.56 178.61,90.36 74.37,29.29 140.59,46.52 198.57,51.79 42.17,3.19 78.19,0.3 107.97,-8.56 37.06,-9.06 69.25,-28.18 96.37,-57.37 24.84,-26.31 41.98,-59.48 51.33,-99.34 4.86,-26.8 7.39,-46.43 7.69,-58.99 0.43,-17.94 -0.81,-34.89 -3.54,-51.04" /><path
         id="path32"
         style="fill:#000000;fill-opacity:1;fill-rule:nonzero;stroke:none"
         d="m 1041.63,0 c -1.63,0 -3.34,0.0507813 -5.21,0.179688 l -17.9,2.101562 c -12.7,1.30078 -22.594,4.30078 -33.5,6.80078 C 963.723,14.9805 944.023,23.7695 924.926,34.082 850.523,76.8789 799.023,143.879 757.719,214.672 686.223,341.77 643.922,485.582 618.223,635.07 c -41,-3.429 -81.828,-5.32 -122.371,-5.32 -59.719,0 -118.813,4.09 -176.829,13.332 -82.601,14.199 -164.8,39.199 -230.9019,93.098 -32.6992,26.902 -59.8008,62.8 -74.5977,104 l -2.7031,7.789 -1.89842,5.711 c -1.60157,5.199 -0.69922,2.402 -1.19922,4.101 l -2.70313,13.598 c -2.30078,7.793 -3.30078,20.902 -4.496092,32.301 -1.500001,23.09 0.398437,43.89 3.796872,65.09 15.80469,84.81 60.00389,154.2 105.49969,214.21 33.004,43 68.5,81.3 104.801,116.5 -29.5,35.29 -56.797,72.4 -80.996,111.79 -42.2031,69.91 -76.2031,148.01 -79.8047,237.31 -1.5976,44.3 6.5039,91.4 26.5039,134.2 l 3.7969,8 1.8047,3.99 1,2.01 c 1.6406,3.28 1.6836,3.37 1.7226,3.37 0.0039,0 0.0039,0 0.0039,0 v 0 c 0.0235,0 0.0586,0.01 0.3711,0.53 l 7.6954,12.6 c 4.3012,7.6 12.7072,18.6 20.0002,28.4 15.304,19 31.203,33.8 48.504,48 69.5,54.89 146.597,77.7 217.601,92.1 67.309,13.18 131.953,17.14 193.364,17.14 3.824,0 7.64,-0.01 11.437,-0.04 67.797,-1.3 131.594,-6.9 191.297,-14.9 38.199,87.2 83.598,171.1 138.699,249.3 52.301,72.6 114.599,142 195.899,188.6 40.3,22.89 86.3,38.1 131.4,40.1 l 8.5,0.4 4.1,0.1 2.1,0.2 c 5.5,0 2.5,-0.2 4.3,-0.2 l 13.8,-1.1 c 8.2,-0.3 20.9,-2.8 31.9,-5 22,-4.8 40.4,-12.5 58.3,-21.7 70.5,-38.41 113.8,-99 147.6,-158.01 33.51,-59.99 56.6,-121.99 74.7,-182.59 0.21,-0.74 0.42,-1.47 0.63,-2.2 -9.66,-5.88 -19.69,-12.2 -30.08,-18.95 -0.91,2.38 -1.82,4.77 -2.75,7.15 -22.4,56.99 -49.5,114.49 -85.3,167.19 -36.4,51.61 -82.1,100.41 -139.5,123.81 -14,5.4 -29.5,10 -43.5,11.5 -5.73,0.5 -10.35,1.55 -17.77,1.55 -1.52,0 -3.15,-0.05 -4.93,-0.15 l -14,-0.1 c 0.3,0 -3.8,0 0.6,-0.2 l -1.4,-0.1 -3,-0.4 -5.7,-0.91 c -30.4,-4.39 -60.6,-17.19 -89,-36.49 -57.4,-39 -104.9,-101.3 -146,-167.6 -40.297,-66.91 -73.7,-139.5 -102.098,-215.4 l -4.801,-12.8 c -25.496,-69.4 -46.898,-141.4 -65.801,-214.1 109.301,79.1 240.3,127.8 378.3,132.39 6.97,0.23 13.89,0.34 20.78,0.34 19.3,0 38.31,-0.88 57,-2.6 -5.29,-4.73 -10.57,-9.49 -15.84,-14.28 -5.27,-5.01 -10.48,-10.03 -15.64,-15.07 -306.135,-16.53 -576.022,-282.16 -610.295,-607.78 -25.676,-244.868 88.922,-456.2 276.109,-553.259 -4.625,-16.57 -8.906,-32.281 -12.754,-46.762 -29.558,9.84 -57.875,21.973 -84.757,36.211 -22.598,-4.39 -45.403,-8.398 -67.903,-12.191 16.903,-135.199 45.106,-265.899 96.403,-378.207 30.898,-65 69.097,-125.692 120.601,-162.102 29.966,-21.8395 64.596,-33.07 100.566,-33.07 25.14,0 50.93,5.4922 76.23,16.6797 61.6,26.7893 115.5,78.4923 160.2,132.8003 44.4,55.192 80.9,114.7 112.2,173.5 42.3,79.29 74.3,157.59 100.2,231.79 l 31.5,86.199 -5.8,-56.59 c -23.6,-85.199 -53.7,-177.297 -95.8,-273.699 -27.9,-62.211 -60.9,-126.098 -104.1,-188.41 -43.6,-61.59 -96.5,-125.0005 -173.8,-167.5981 -38.05,-20.6133 -82.94,-33.992212 -127.66,-33.992212 -0.18,0 -0.36,0 -0.54,0 C 1047.82,0.179688 1044.89,0 1041.63,0 M 238.32,1271.58 c -31.601,-35.6 -62.195,-73.6 -89.297,-114.6 -37.5,-58.8 -70.2027,-125.1 -75.7027,-190.21 -1.0976,-15.79 -1,-32.5 1.6016,-46.301 1.3984,-6.789 1.6015,-12.289 5.0976,-21.989 l 3.9024,-12.398 0.8008,-1.203 1.0976,-2.598 2.4024,-4.801 c 12.7033,-26.699 33.1993,-48.8 59.0973,-66.101 52.403,-35.199 123.703,-49.797 197.106,-56.5 23.422,-1.797 47.187,-2.649 71.242,-2.649 60.043,0 121.867,5.27 184.555,14.04 -5.203,49.812 -8.602,100 -10.5,150.5 -13.2,28.21 -24.102,57.812 -32.602,88.51 -28,18 -55.398,36.39 -82.301,55.7 -86.097,62.6 -166.898,132.1 -236.5,210.6 m 418.703,340.49 c -30.304,-18.8 -61.601,-38.69 -94.199,-61.09 -73.902,-51 -154.004,-111.6 -232.101,-184.8 61.699,-59.2 132,-112.6 205.699,-162.7 0.199,3.4 0.402,6.9 0.699,10.29 8.102,111.11 44.199,216.51 100.801,308.91 l 19.101,89.39 m -500.097,156.31 -0.504,-1.4 -2.996,-8.4 c -10.703,-29.81 -13.504,-61.6 -9.305,-93.6 8.301,-64.8 42.902,-127.2 84.305,-184.7 24.797,-33.21 52.797,-64.6 82.699,-94.8 85.098,69.8 169.094,126.7 245.996,175.29 35.801,22.11 69.5,42.11 102.098,60.81 10.101,42.1 21.105,83.8 33.402,125.2 21.902,72.99 47.5,145.29 77.301,215.7 l 0.699,1.69 c -32.176,2.14 -65.367,3.41 -99.508,3.41 -28.14,0 -56.922,-0.86 -86.293,-2.81 -63.398,-4.39 -129.699,-13.09 -195.699,-31.39 -65.199,-18.9 -132.699,-47.6 -182,-94.4 -11.898,-11.6 -23.398,-24.7 -31.699,-37.2 -3.801,-6.3 -7.797,-10.9 -12.301,-20.9 l -6.598,-13 -0.101,-0.4 0.504,0.9 M 1101.26,599.031 c -21.27,0 -42.21,1.071 -62.75,3.16 3.23,9.219 6.6,18.957 10.09,29.129 36.81,-8.16 75.36,-12.441 115.32,-12.441 61.3,0 121.5,10.293 179,29 -53.6,-22.008 -109.9,-37.199 -167.7,-44.598 -2.5,-0.312 -4.9,-0.601 -7.4,-0.801 -15,-1.609 -30.1,-2.601 -45.3,-3.101 -7.12,-0.238 -14.2,-0.348 -21.26,-0.348 m 554.36,1079.549 c -2.7,2.69 -5.4,5.3 -8.1,8 -0.1,0.9 -0.3,1.9 -0.4,2.8 -0.2,1.39 -0.3,2.89 -0.6,4.2 l -0.5,5.19 c -2,17.11 -3.8,34.01 -6.2,51.91 -9.87,69.3 -24.02,144.27 -45.91,221.25 l 22.84,15.19 c 0.69,-3.51 1.7,-8.78 2.97,-15.64 l 36.3,-277.8 c 0.2,-1.9 0.3,-3.71 0.6,-5.5 l -1,-9.6 m -40.2,44.3 c -63.27,52.25 -139.43,88.96 -224.41,105.21 6.63,4.95 13.15,9.81 19.51,14.54 22.74,-7.02 44.77,-15.4 66,-25.05 51.5,-24.4 98.2,-56.4 138.9,-94.7" /><path
         id="path34"
         style="fill:#000000;fill-opacity:1;fill-rule:nonzero;stroke:none"
         d="m 1038.51,602.191 c -43.588,4.438 -85.428,13.489 -125.03,26.668 3.848,14.481 8.129,30.192 12.754,46.762 37.985,-19.699 78.966,-34.691 122.366,-44.301 -3.49,-10.172 -6.86,-19.91 -10.09,-29.129 m 352.5,1225.899 c -32.26,6.17 -65.8,9.39 -100.39,9.39 -10.1,0 -20.17,-0.28 -30.2,-0.82 5.16,5.04 10.37,10.06 15.64,15.07 5.27,4.79 10.55,9.55 15.84,14.28 41.23,-3.81 80.91,-11.73 118.62,-23.38 -6.36,-4.73 -12.88,-9.59 -19.51,-14.54 m 202.9,143.84 c -0.06,0.21 -0.13,0.43 -0.19,0.65 l -4.1,14.49 c -8.4,28.55 -17.91,57.08 -28.85,85.86 10.39,6.75 20.42,13.07 30.08,18.95 9.63,-33.65 17.83,-66.92 24.87,-99.61 0,0 0.37,-1.76 1.03,-5.15 l -22.84,-15.19" /></g></g></svg>